<?xml version="1.0"?>
<svg width="1431" height="839" xmlns="http://www.w3.org/2000/svg" xmlns:svg="http://www.w3.org/2000/svg">
 <defs>
  <style type="text/css">
   <![CDATA[
  
      .continent {
        stroke: #000000;
        stroke-width: 1px;
      }

      #south-america            { fill: #009999; }
      #south-america .highlight { fill: #006363; }
      #south-america .selected  { fill: #5ccccc; }
      
      #australia            { fill: #9fee00; }
      #australia .highlight { fill: #679b00; }
      #australia .selected  { fill: #c9f76f; }

      #africa            { fill: #ffaa00; }
      #africa .highlight { fill: #a66f00; }      
      #africa .selected  { fill: #ffd073; }

      #north-america            { fill: #7109aa; }
      #north-america .highlight { fill: #48036f; }
      #north-america .selected  { fill: #ad66d5; }

      #asia              { fill: #ff0000; }
      #asia .highlight { fill: #a60000; }
      #asia .selected    { fill: #ff7373; }

      #europe              { fill: #1240ab; }
      #europe .highlight   { fill: #06266f; }
      #europe .selected    { fill: #6c8cd5; }

    ]]>
  </style>
 </defs>
 <g>
  <title>Layer 1</title>
  <g class="continent" id="south-america">
   <path fill="#18db96" d="m340.6875,344.875l-4.75,7.40625l-19.78125,1.375l-8.25,3.6875l-4.59375,-6.4375l2.75,-6.4375l-2.75,-5.0625l-11.03125,6.4375l-4.59375,-2.75l-1.84375,2.75l2.28125,9.65625l-8.71875,4.125l-2.75,-5.5l-3.21875,-1.40625l-0.9375,2.78125l-3.65625,-2.3125l-4.59375,3.21875l2.75,3.21875l-4.125,4.125l4.125,7.8125l-3.21875,12.875l-4.125,-2.75l-4.59375,1.375l-4.625,4.59375l0,12.875l6.90625,7.34375l2.3125,-1.84375l3.21875,1.84375l0,3.6875l5.96875,2.75l5.96875,-5.96875l7.34375,-1.375l5.0625,11.03125l17.46875,7.34375l2.28125,9.1875l7.8125,0.90625l5.96875,8.75l-1.8125,5.0625l-4.15625,1.8125l4.15625,3.6875l2.28125,10.125l16.09375,10.09375l2.28125,9.65625l-9.65625,7.8125l-1.375,5.0625l21.21875,15.9375l12.875,-25.15625l-4.5625,-10.40625l20.78125,-12.34375l5.21875,2.59375l9.75,-17.53125l0,-26.65625l7.15625,-7.15625l10.375,-16.90625l-2.59375,-12.34375l-11.6875,-1.9375l-7.8125,-7.8125l-17.53125,-3.25l-3.90625,5.84375l0,-7.78125l-9.09375,-7.15625l-7.15625,8.46875l-4.5625,-0.65625l5.875,-7.15625l-3.90625,-4.5625l-9.75,10.40625l-3.25,-3.25l8.4375,-9.75l-3.25,-13.65625l-0.5,-0.40625z" class="territory" id="brazil"/>
   <path fill="#18db96" d="m261.5,382.90625l1.8125,-8.125l-11.03125,-0.4375l-9.65625,-12.40625l-5.5,0.90625l-9.53125,-5.1875l-9.21875,13.625l5.1875,3.25l-7.15625,9.09375l2.59375,7.8125l6.5,3.25l5.21875,14.3125l8.4375,12.34375l5.21875,9.09375l15.59375,8.4375l6.65625,8.875l4.96875,-4.03125l9.65625,23.4375l4.59375,-3.21875l13.3125,0.46875l1.84375,-2.75l9.1875,10.09375l12.875,4.59375l-1.84375,10.125l11.03125,1.375l5.375,-11.59375l-0.3125,-1.28125l-16.09375,-10.09375l-2.28125,-10.125l-4.15625,-3.6875l4.15625,-1.8125l1.8125,-5.0625l-5.96875,-8.75l-7.8125,-0.90625l-2.28125,-9.1875l-17.46875,-7.34375l-5.0625,-11.03125l-7.34375,1.375l-5.96875,5.96875l-5.96875,-2.75l0,-3.6875l-3.21875,-1.84375l-2.3125,1.84375l-6.90625,-7.34375l0,-12.875l4.625,-4.59375l4.59375,-1.375l1.84375,1.21875z" class="territory" id="peru"/>
   <path fill="#18db96" d="m260.59375,306.9375l-5.84375,1.96875l-9.75,5.1875l-5.84375,11.0625l-9.75,3.25l4.5625,7.78125l-0.65625,13l-5.71875,8.46875l9.53125,5.1875l5.5,-0.90625l9.65625,12.40625l11.03125,0.4375l-1.8125,8.125l2.28125,1.53125l3.21875,-12.875l-4.125,-7.8125l4.125,-4.125l-2.75,-3.21875l4.59375,-3.21875l3.65625,2.3125l0.9375,-2.78125l3.21875,1.40625l2.75,5.5l8.71875,-4.125l-2.28125,-9.65625l1.84375,-2.75l4.59375,2.75l11.03125,-6.4375l2.75,5.0625l-2.75,6.4375l4.59375,6.4375l8.25,-3.6875l19.78125,-1.375l4.75,-7.40625l-9.25,-7.375l-13.625,0l-11.0625,-11.6875l-15.59375,-9.75l-11.6875,1.28125l-11.71875,-7.78125l-7.15625,5.84375l3.25,3.90625l-5.84375,4.53125l-2.59375,-7.15625l5.1875,-9.75z" class="territory" id="venezuela"/>
   <g class="territory" id="argentina">
    <path fill="#18db96" id="path3846" d="m337.625,476.25l-6.674805,10.1315l-9.731445,0.08728l1.84375,-10.125l-12.875,-4.593781l-9.1875,-10.09375l-1.84375,2.75l-13.3125,-0.46875l-4.59375,3.21875l-9.65625,-23.4375l-4.96875,4.03125l3.09375,4.125l0.625,22.09375l0,20.15625l4.5625,20.15625l-1.3125,17.53125l0,5.1875l7.8125,16.90625l7.78125,13l-6.46875,5.84375l6.46875,5.21875l1.3125,8.4375l11.6875,12.34375l8.46875,2.59375l3.90625,-1.9375l-1.96875,-7.8125l4.5625,-11.03125l-7.8125,-10.40625l3.90625,-5.84375l0,-3.90625l3.25,-3.90625l-9.09375,-5.1875l4.53125,-5.1875l5.21875,4.53125l3.25,-3.90625l-3.90625,-5.84375l3.25,-2.59375l6.5,1.9375l9.09375,-7.78125l-0.65625,-7.15625l-6.5,-5.84375l0,-2.59375l11.0625,4.53125l7.78125,-2.59375l2.75,-5.375l-21.21875,-15.9375l1.375,-5.0625l9.65625,-7.8125l-1.96875,-8.375z"/>
    <path fill="#18db96" id="path3756" d="m316.62616,600.886841l-2.757263,7.352722l11.029083,4.135925l11.029053,-1.838196l-12.407715,-3.676392l-6.893158,-5.97406z"/>
   </g>
  </g>
  <g class="continent" id="australia">
   <path fill="#150fc1" d="m1102.997559,584.056213l19.777588,-51.819641l-53.929932,-3.298767l15.488159,-50.954895l-6.810913,-5.092285l-10.11792,4.259583l-7.236572,7.526337l1.932007,3.779175l-1.932007,1.857574l-4.322144,-2.818359l-6.254272,10.376709l-8.186035,4.22757l-27.439819,10.37674l-4.354919,32.95575l2.423096,10.825073l-7.694885,10.37677l7.203796,5.156311l17.812805,-7.045898l12.049927,0l13.949097,-6.117188l22.167847,-3.298767l7.694946,6.117188l3.372681,8.935486l10.118042,-8.006714l2.88147,2.850403l-6.745361,4.707947l2.423096,0l3.831055,0.928772l0.9823,6.597534l-2.422974,4.708008l3.339844,1.889587z" id="western-australia"/>
   <g id="eastern-australia">
    <path fill="#150fc1" d="m1145.401489,460.656342l-6.25415,12.234283l1.440674,8.006744l-10.11792,11.785919l-18.271484,-13.195099l0,-4.22757l6.254272,-7.526337l-11.558716,-4.707947l-12.999512,4.707947l-8.186035,11.273499l-1.375244,-1.024872l-15.488281,50.954895l53.930054,3.298767l-19.777588,51.819641l5.828491,3.298767l8.186157,-3.298767l4.322144,7.045898l8.677124,-7.045898l5.763062,0l0.982422,1.889587l3.831055,-2.369995l-0.458374,-3.298767l29.371704,-27.767395l0.949585,-7.55835l4.813354,-3.298767l1.440796,-16.013489l-23.117676,-30.13739l2.914429,-10.825104l-2.423096,-8.006744l-5.304565,-4.707947l-3.372681,-11.305511z" id="path3758"/>
    <path fill="#150fc1" d="m1110.261353,599.120789c1.926147,0 13.000977,0.471008 13.000977,0.471008l-5.296631,8.00647l-7.222778,3.767822l-4.815186,-1.883911l3.852173,-4.23877l0.481445,-6.12262z" id="path3760"/>
   </g>
   <g id="new-guinea">
    <path fill="#150fc1" d="m1116.039551,424.39093l13.000977,-8.948425l33.706299,16.01297l6.259888,8.477478l-2.407593,2.354828l8.185791,11.303284l9.148804,6.12262l-2.88916,0.941925l-12.037842,-4.709686l-6.741333,-8.477478l-7.222778,-3.767761l-6.741211,7.535522l-8.667358,0.471008l-4.333618,-6.593597l-5.778442,2.354828l-1.926025,-3.296783l5.296631,-2.354858l-3.370605,-6.593567l-15.890015,-8.477448l-6.741333,0l-2.407471,-4.709717l3.852173,-2.354858l-9.149048,-4.709686l8.185913,-3.767761l2.889038,2.825806l0.963135,5.180695l4.815186,5.180664z" id="path3764"/>
    <path fill="#150fc1" d="m1175.386719,435.576477l7.463623,-0.588715l6.259644,-5.887146l1.44458,0.706482l-0.842651,3.296753l-8.06543,6.711334l-4.333618,-1.059662l-2.407593,-1.295197l0.481445,-1.88385z" id="path3766"/>
    <path fill="#150fc1" d="m1200.666504,443.582947l2.16687,-2.472565l-4.092896,-3.885529l-1.083374,-4.003235l-1.203857,0.235474l0.963013,5.533905l3.250244,4.591949z" id="path3768"/>
    <path fill="#150fc1" d="m1212.223022,446.291016l4.815063,4.356445l1.926147,-1.88385l-5.296753,-4.121002l-1.444458,1.648407z" id="path3770"/>
    <path fill="#150fc1" d="m1220.890259,448.881348l0.361206,6.593597l3.852051,5.533905l1.203979,-2.237091l-3.009644,-3.885529l-0.601929,-5.887115l-1.805664,-0.117767z" id="path3772"/>
    <path fill="#150fc1" d="m1182.489136,422.978027l-0.120361,-2.590332l3.731812,0.824188l6.981934,6.475861l0.120361,3.532257l-2.16687,-1.412903l-2.768555,-4.356506l-5.77832,-2.472565z" id="path3774"/>
   </g>
   <g id="indonesia">
    <path fill="#150fc1" d="m983.494812,435.382019l5.788269,-5.827942l-2.213196,-7.992615l-10.895447,-9.657776l-0.510742,-7.160065l-15.151611,-8.325653l-1.361938,-6.493988l-12.938477,-6.827057l-4.766785,0.166504l4.596558,6.993591l8.341919,7.160065l10.044312,15.485687l3.404846,4.662354l0.851196,5.494934l9.703857,10.323822l5.107239,1.998138z" id="path3776"/>
    <path fill="#150fc1" d="m1001.370361,405.07666l7.320435,17.983429l16.002808,0.832581l4.766724,2.664185l4.42627,-3.829803l5.618042,-15.652222l4.59668,-3.496765l-4.937134,-7.326569l-0.340454,-5.32843l5.618042,-5.994476l-8.001465,-7.326569l-6.809692,7.493073l-7.660889,2.664215l-2.894165,6.660522l-6.97998,3.163757l-1.87262,4.828888l-4.937073,-2.331207l-3.915527,4.995392z" id="path3778"/>
    <path fill="#150fc1" d="m987.069885,441.54303l10.044434,3.829773l5.447693,-1.332092l5.61792,2.83075l18.556519,1.998138l2.383423,-1.998138l-10.895569,-3.496796l-3.404846,-3.496796l-5.958557,0l-3.7453,1.998199l-3.064331,-0.499573l-3.575134,-2.664185l-7.660889,-1.831635l-3.745361,2.331177l0,2.331177z" id="path3780"/>
    <path fill="#150fc1" d="m1072.53186,401.413361l-2.383423,0.166534l-4.42627,2.664215l-2.894165,0.166504l-0.170166,-1.332123l-5.78833,0.166504l-0.851196,-1.165558l-2.723877,0.333008l-4.59668,4.828857l-0.340332,10.989868l-3.745361,4.162842l-0.510742,2.997223l3.064331,2.164673l0.340576,2.997253l-1.532227,0l-0.170288,3.163757l2.553711,1.6651l3.404907,-1.6651l0,-2.997253l-1.872681,-5.827972l3.234497,-2.997253l2.553711,3.163757l0.170166,2.497711l5.277466,3.6633l-0.340332,-7.326569l-3.064575,-4.662354l1.872803,-2.997253l5.277588,-2.331177l-0.340576,-1.665161l-5.618042,0.166534l-3.745239,2.164673l-4.426392,-3.330261l3.234619,-4.162811l4.59668,-1.498627l3.234497,0.666046l3.745361,2.830719l4.937012,-2.331177l2.042969,-5.32843z" id="path3782"/>
    <path fill="#150fc1" d="m1046.484619,323.152252l-0.170288,7.326569l-2.383423,2.997253l0.510742,4.995392l8.512085,7.992615l3.915649,1.165588l3.575073,-0.999084l3.404907,1.665131l0.510742,-3.163757l-3.404907,-2.497681l-3.234741,0.499542l-6.128662,-5.32843l3.575195,-5.494934l-0.510742,-4.828888l-4.085938,-4.662354l-4.085693,0.333038z" id="path3784"/>
    <path fill="#150fc1" d="m1044.77478,357.27771l-9.149048,10.596832l2.88916,1.412903l6.019043,-4.474182l2.88916,-4.474243l-2.648315,-3.06131z" id="path3786"/>
    <path fill="#150fc1" d="m1057.534912,373.761658l4.815186,1.177429l1.685303,-2.119385l3.129883,3.296814l2.407593,8.241974l5.537598,-3.296783l-3.852295,-3.296814l4.093018,-2.119324l3.129883,4.474182l0.481567,-6.12262l-5.296753,-11.303253l-1.926147,0l0.240723,5.180664l-5.537476,2.825836l-3.611328,-2.119385l-5.296753,5.180664z" id="path3788"/>
   </g>
  </g>
  <g class="continent" id="africa">
   <path fill="#d88517" d="m721.71875,412.15625l-10.90625,3.8125l-5.6875,-0.15625l-5.84375,-0.5l-0.65625,7.8125l4.71875,3.71875l0.8125,7.5l-3.90625,4.375l-3.71875,-1.9375l0.15625,-2.625l1.78125,-1.125l-0.46875,-2.59375l-6.6875,-3.90625l2.78125,-11.375l-2.125,-4.375l1.46875,-2.78125l-10.25,-8.75l-9.40625,3.71875l1.46875,3.59375l-3.09375,3.71875l0.8125,3.09375l1.9375,3.90625l4.875,2.25l0.15625,1.625l-3.71875,2.78125l-5.375,-4.0625l0,-2.125l-2.25,-1.625l-2.4375,1.78125l-5.375,-3.5625l-13,-1.78125l-2.28125,-5.375l0.34375,-10.71875l-8.46875,-2.75l-2.59375,5.34375l-5.34375,1.46875l-2.9375,-4.53125l-2.28125,-5.53125l-16.375,-0.3125l7.03125,12.65625l-2.75,7.375l2.75,5.5l-8.28125,8.28125l-0.90625,11.03125l0.90625,11.03125l9.1875,17.4375l1.84375,21.15625l11.03125,24.8125l8.28125,10.125l12.84375,-2.78125l7.375,3.6875l33.09375,-31.25l-1.84375,-6.4375l7.34375,-7.34375l7.34375,-5.53125l-3.65625,-13.78125l19.28125,-19.28125l6.4375,-8.28125l-3.4375,-16.40625z" id="south-africa"/>
   <path fill="#d88517" d="m703.03125,257.65625l-9.59375,7.3125l-1.59375,-1.625l-34.6875,0l-0.25,8.96875l-2.96875,0l-0.25,20l-2.0625,0l-4.8125,8.5l0,4.59375l8.28125,15.375l0.4375,3.90625l5.28125,3.6875l4.375,6.90625l2.75,0l1.375,3.21875l-1.59375,1.59375l5.28125,5.28125l4.59375,-2.96875l6.4375,4.8125l9.65625,-2.0625l3.65625,0l2.78125,5.28125l1.375,5.28125l-11.5,11.71875l-5.28125,1.15625l-1.375,4.125l-1.375,8.75l-5.28125,1.375l0,6.4375l6.09375,10.125l0.40625,-0.15625l10.25,8.75l-1.46875,2.78125l2.125,4.375l-2.78125,11.375l6.6875,3.90625l0.46875,2.59375l-1.78125,1.125l-0.15625,2.625l3.71875,1.9375l3.90625,-4.375l-0.8125,-7.5l-4.71875,-3.71875l0.65625,-7.8125l5.84375,0.5l5.6875,0.15625l10.90625,-3.8125l-0.21875,-1.0625l-4.625,-22.0625l3.6875,-10.09375l30.34375,-27.59375l16.53125,-33.0625l-0.90625,-8.28125l-20.21875,8.28125l-11.03125,-1.84375l-1.84375,-11.03125l-7.34375,-6.4375l-18.40625,-22.96875l0,-11.03125l-4.65625,-7.3125z" id="east-africa"/>
   <path fill="#d88517" d="m650.875,312.96875l-14.875,10.125l-6.4375,5.5l-10.3125,0l-4.375,8.96875l7.125,12.40625l0.6875,3.21875l-3.6875,1.625l-4.59375,-0.25l-0.90625,-1.375l-15.5,-0.1875l-1.5,16.75l11.34375,20.40625l16.375,0.3125l2.28125,5.53125l2.9375,4.53125l5.34375,-1.46875l2.59375,-5.34375l8.46875,2.75l-0.34375,10.71875l2.28125,5.375l13,1.78125l5.375,3.5625l2.4375,-1.78125l2.25,1.625l0,2.125l5.375,4.0625l3.71875,-2.78125l-0.15625,-1.625l-4.875,-2.25l-1.9375,-3.90625l-0.8125,-3.09375l3.09375,-3.71875l-1.46875,-3.59375l9,-3.5625l-6.09375,-10.125l0,-6.4375l5.28125,-1.375l1.375,-8.75l1.375,-4.125l5.28125,-1.15625l11.5,-11.71875l-1.375,-5.28125l-2.78125,-5.28125l-3.65625,0l-9.65625,2.0625l-6.4375,-4.8125l-4.59375,2.96875l-5.28125,-5.28125l1.59375,-1.59375l-1.375,-3.21875l-2.75,0l-4.375,-6.90625l-5.28125,-3.6875l-0.4375,-3.90625l-4.21875,-7.8125z" id="congo"/>
   <path fill="#d88517" d="m603.15625,214.53125l-3,4.71875l-5.96875,8.9375l2.75,11.03125l-2.75,5.75l3.21875,6.90625l9.875,6.40625l9.65625,1.625l3.6875,-2.53125l7.5625,1.15625l25.71875,16.71875l0.031189,-2.9375l2.96875,0l0.25,-8.96875l34.6875,0l1.59375,1.625l9.59375,-7.3125l-16.46875,-25.78125l3.6875,-1.84375l4.59375,3.6875l3.65625,-1.84375l-5.5,-7.34375l-10.125,-3.6875l-9.1875,3.6875l-30.3125,-11.96875l-6.4375,8.28125l3.65625,2.75l-6.4375,3.6875l-12.84375,-4.59375l-4.59375,-7.34375l-13.562439,-0.8125z" id="egypt"/>
   <path fill="#d88517" d="m596.5,192.34375l-11.03125,5.53125l-16.5625,-0.9375l-21.125,11.03125l-11.03125,-5.5l-11.9375,12.875l-6.4375,2.75l0.90625,13.78125l-14.6875,8.28125l-14.71875,24.8125l-3.6875,9.1875l8.28125,10.09375l-7.34375,15.625l11.9375,22.0625l20.21875,21.15625l9.1875,0.90625l11.96875,-6.4375l6.40625,5.53125l24.84375,-12.875l6.40625,9.1875l11.03125,0l9.1875,10.125l-0.3125,3.46875l15.5,0.1875l0.90625,1.375l4.59375,0.25l3.6875,-1.625l-0.6875,-3.21875l-7.125,-12.40625l4.375,-8.96875l10.3125,0l6.4375,-5.5l14.875,-10.125l-4.0625,-7.5625l0,-4.59375l4.8125,-8.5l2.0625,0l0.21875,-17.0625l-25.71875,-16.71875l-7.5625,-1.15625l-3.6875,2.53125l-9.65625,-1.625l-9.875,-6.40625l-3.21875,-6.90625l2.75,-5.75l-2.75,-11.03125l5.96875,-8.9375l3,-4.71875l-2.0625,-0.125l-4.59375,-9.1875l5.5,-8.28125l-5.5,-4.59375z" id="north-africa"/>
   <path fill="#d88517" d="m758.751343,419.708954l4.224304,10.398315l-15.272522,47.11731l-8.448608,2.274628l-5.199158,-2.599579l-1.624756,-12.672943l6.498962,-9.748413l0.649902,-4.874207l-3.249451,-2.274628l2.274597,-9.423462l8.77356,-2.274628l10.398315,-10.073334l0.974854,-5.84906z" id="madagascar"/>
  </g>
  <g class="continent" id="north-america">
   <path fill="#e01818" d="m161.53125,245.125l-2.96875,-0.25l-4.25,-4.875l0,-5.84375l-4.53125,-5.84375l-3.59375,0l-4.875,3.25l-3.5625,-3.90625l-1.3125,-4.53125l-4.53125,-3.90625l-5.53125,0l-1.625,2.59375l-11.03125,-0.65625l-9.75,-5.1875l-11.9375,-0.28125l0.21875,0.9375l0,9.09375l5.21875,8.125l-2.125,4.21875l2.125,3.65625l3.5625,2.84375l1.3125,5.84375l4.53125,6.5l3.59375,0.65625l-5.21875,-6.8125l0,-9.4375l-5.53125,-9.75l-1.625,-8.4375l2.625,-3.90625l5.5,3.25l0,7.78125l6.84375,11.375l3.25,4.25l-1.96875,2.59375l6.1875,4.53125l4.875,10.09375l-0.96875,7.46875l-1.96875,3.5625l25.03125,14.625l8.78125,2.59375l10.40625,-2.59375l7.125,7.15625l12.03125,8.4375l7.15625,-2.59375l0.96875,3.5625l0.3125,3.25l5.21875,3.25l1.625,6.1875l9.09375,7.46875l2.59375,0l8.125,3.25l0.65625,-4.21875l5.53125,-0.96875l4.53125,3.25l3.90625,-0.96875l-5.1875,-4.875l-4.25,-1l-4.875,1.96875l-7.46875,-0.34375l-6.15625,-6.15625l2.28125,-23.71875l-8.46875,-1.96875l-6.5,2.28125l-5.53125,-1.9375l10.40625,-22.75l-5.1875,-1.96875l-8.125,1.96875l-3.90625,8.78125l-10.0625,4.53125l-7.8125,-1.28125l-7.78125,-12.375l0.625,-12l3.96875,-9.84375z" id="central-america"/>
   <path fill="#e01818" d="m132.875,220.03125l13.3125,-1.46875l6.5,-21.125l37.375,-0.96875l3.59375,-10.0625l-4.5625,-13.65625l4.875,-9.4375l3.5625,-11.03125l-0.625,-10.0625l-82.875,0l-4.21875,7.125l-3.25,2.28125l0,-1.9375l2.28125,-2.59375l-7.15625,-0.65625l-0.96875,6.5l-6.1875,10.375l-6.15625,4.5625l-1.625,6.8125l-5.53125,5.875l1.9375,3.25l-3.5625,2.90625l1.625,4.5625l3.25,1.9375l-3.25,1.9375l1.9375,3.25l0.96875,9.4375l6.84375,2.9375l1.0625,4.90625l11.9375,0.28125l9.75,5.1875l11.03125,0.65625l1.625,-2.59375l5.53125,0l0.96875,0.8125z" id="western-united-states"/>
   <path fill="#e01818" d="m308.15625,159.84375l-1.28125,-3.65625l1.625,-2.78125l-1.125,-4.21875l-6.1875,2.125c0,0 -5.337524,5.662598 -5.5,6.3125c-0.081207,0.324951 -1.301758,0.715668 -2.5,1c-1.198242,0.284332 -2.375,0.46875 -2.375,0.46875l-10.25,0.15625l-20.625,7.96875l-8.78125,7l-5.84375,-0.5l-0.3125,-3.71875l3.25,-2.9375l0.78125,-3.90625l-5.03125,-9.40625l-16.40625,-7.3125l-13.65625,-4.21875l-17.03125,0l0.625,10.0625l-3.5625,11.03125l-4.875,9.4375l4.5625,13.65625l-3.59375,10.0625l-37.375,0.96875l-6.5,21.125l-13.3125,1.46875l3.5625,3.09375l1.3125,4.53125l3.5625,3.90625l4.875,-3.25l3.59375,0l4.53125,5.84375l0,5.84375l4.25,4.875l2.96875,0.25l2.875,-7.0625l18.84375,-11.6875l14.625,5.5l1.625,-6.5l8.78125,-1.28125l7.125,4.21875l4.875,-1.3125l3.90625,4.25l-0.65625,6.5l2.28125,8.75l2.9375,2.625l3.875,-5.21875l0,-5.1875l-1.9375,-6.84375l0.3125,-8.4375l10.09375,-10.0625l13,-7.15625l5.84375,-7.15625l-0.34375,-3.5625l-1.28125,-0.96875l1.625,-5.53125l13.96875,-8.125l2.28125,-4.875l4.875,1.3125l10.0625,-4.875l0.3125,-4.25l16.71875,-8.34375z" id="eastern-united-states"/>
   <path fill="#e01818" d="m274.5,133l-8.5625,15.21875l0,4.0625l14.59375,6.96875l0.031189,0l10.25,-0.15625c0,0 1.176758,-0.184418 2.375,-0.46875c1.198242,-0.284332 2.418793,-0.675049 2.5,-1c0.162506,-0.649902 5.5,-6.3125 5.5,-6.3125l6.1875,-2.125l1.125,4.21875l-1.625,2.78125l1.28125,3.65625l0.1875,-0.093704l10.71875,-3.5625l0.65625,1.9375l-8.4375,4.5625l0.65625,2.90625l3.25,0.34375l4.875,-4.5625l12.34375,-2.59375l6.5,-6.5l-2.625,-2.28125l-5.84375,6.5l-5.84375,0l3.5625,-3.25l-1.9375,-1.3125l-3.25,1.96875l-3.90625,-3.59375l3.25,-3.875l1,-4.5625l-6.5,0l-8.125,4.875l-3.59375,0.34375l-1.28125,-1l5.84375,-4.875l13,-5.84375l10.71875,0.96875l2.59375,1.625l16.25,-5.1875l8.78125,-4.874992l2.59375,-4.21875l-3.90625,-4.21875l-4.53125,0l-4.25,3.25l-1.28125,-2.28125l3.25,-2.9375l-2.28125,-7.15625l-2.28125,-0.96875l3.59375,-3.875l-3.90625,-3.90625l2.28125,-2.9375l-2.9375,-2.90625l-7.15625,5.5l-6.15625,1.96875l-4.25,-3.90625l1.968811,-5.187553l-6.5,-5.875l-10.40625,-2.59375l-5.84375,2.28125l-2.9375,8.125l-3.25,2.59375l-3.5625,1.3125l0.65625,7.78125l-3.25,6.1875l-8.78125,1.9375l-4.875,5.21875l-1.28125,6.15625l-6.84375,6.1875l-0.375,-0.4375z" id="quebec"/>
   <path fill="#e01818" d="m247.25,95.40625l-27.9375,0l-29.03125,46.8125l6.625,0l17.03125,0l13.65625,4.21875l16.40625,7.3125l5.03125,9.40625l-0.78125,3.90625l-3.25,2.9375l0.3125,3.71875l5.84375,0.5l8.78125,-7l20.59375,-7.96875l-14.59375,-6.96875l0,-4.0625l8.5625,-15.21875l-4.8125,-5.75l4.21875,-10.0625l-4.5625,-2.28125l-6.8125,-0.96875l-3.25,-3.25l-11.6875,-2.59375l-3.59375,-8.125l3.25,-4.5625z" id="ontario"/>
   <path fill="#e01818" d="m108.1875,115.96875l1.375,0.375l2.75,-4.84375l-2.1875,-2.6875l1.625,-6.25l-3.09375,-5.125l-4.6875,-0.0625l-1.788643,-0.942947l-3.90625,-6.59375l41.632393,-31.619553l-33.34375,-6.03125l-13,0.65625l-23.40625,7.15625l-10.40625,0.65625l-2.90625,1.9375l5.84375,5.53125l-6.8125,2.59375l-4.875,-1.3125l-11.375,2.59375l-2.9375,2.625l3.25,1.28125l4.5625,1.625l4.53125,-1.28125l2.28125,-1l2.59375,1l-8.125,5.1875l-13.96875,1.9375l-6.8125,4.875l1.28125,3.25l0,2.625l-6.5,3.875l3.59375,3.59375l6.5,-2.59375l1.625,1.9375l-13,7.15625l-12.6875,3.875l2.9375,1.625l4.875,-0.625l20.78125,-10.09375l6.84375,-0.3125l11.375,-7.46875l4.53125,-1.3125l3.25,2.28125l7.46875,-1.9375l6.1875,-3.25l16.90625,3.875l8.125,4.875l4.21875,1.96875l2.28125,0.96875l1.9375,3.90625l-0.3125,3.875l1.28125,5.21875l-0.3125,0.40625z" id="alaska"/>
   <path fill="#e01818" d="m219.46875,95.40625l-0.21875,-0.1875l-119.007393,-2.036697l1.9375,3.25l1.788643,0.942947l4.6875,0.0625l3.09375,5.125l-1.625,6.25l2.1875,2.6875l-2.75,4.84375l-1.375,-0.375l-4.21875,5.125l2.59375,5.1875l-3.59375,3.25l4.25,4.5625l2.90625,1.9375l3.90625,6.1875l76.25,0l29.03125,-46.8125l0.15625,0z" id="alberta"/>
   <path fill="#e01818" d="m289.5,49.28125l-10.40625,5.1875l-0.3125,1.9375l3.90625,1.96875l-2.28125,2.90625l-6.8125,1.96875l-6.1875,4.875l-4.5625,-4.875l-14.28125,0.65625l-3.5625,-2.9375l-9.4375,3.5625l-4.21875,5.875l-3.25,-6.5l-14.625,1.625l-1.3125,-2.28125l3.90625,-1.625l-0.96875,-1.625l-6.5,0l-6.1875,-3.59375l-10.375,-0.3125l-2.28125,0.96875l-5.84375,-2.28125l-5.53125,2.28125l-3.90625,-1.28125l-14.28125,3.875l-12.375,0l-7.90625,-1.4375l-41.632393,31.619553l1.96875,3.34375l119.007393,2.036697l0.21875,0.1875l27.78125,0l1.625,-2.28125l20.46875,-10.375l-0.3125,-3.25l2.9375,-0.65625l0.3125,1.9375l14.625,-3.90625l-4.5625,-3.875l2.9375,-2.59375l4.875,2.59375l4.875,-2.59375l13.65625,-0.65625l8.125,-6.84375l1.28125,-2.90625l-2.28125,-1.625l-8.125,0l-6.8125,6.5l-5.53125,1.625l-0.96875,-2.59375l3.90625,-3.90625l-3.59375,-2.28125l-2.90625,1.9375l-1.96875,-4.21875l2.28125,-3.90625l-2.59375,-2.25z" id="northwest-territory"/>
   <path fill="#e01818" d="m377.664673,25.9967l19.760406,-2.067951l17.003143,-7.81226l17.232941,-1.608399l10.339722,2.75726l35.384949,-5.51453l6.433624,0l7.352692,0.91909l4.365692,-2.06795l18.381775,2.06795l6.203857,4.365669l4.825195,-0.229769l9.420654,-1.378631l-1.378601,2.06795l-3.676392,1.6084l-4.135864,0l-6.663391,1.60841l-0.229797,2.067949l-4.595459,3.21681l1.838196,3.446579l-7.812256,9.190891l-8.501556,3.676361l-5.744324,1.378628l-0.689301,-1.378628l-2.067963,2.297718l10.339752,7.582489l-3.906128,1.378632l-7.812256,-5.054989l-2.527496,0.68932l2.067963,2.297718l-0.459564,1.608402l-3.676361,0.91909l0.689331,2.297729l6.433624,-1.378639l2.757263,2.757267l-19.760406,5.054993l-4.825226,-2.067951l-7.812256,2.987041l-8.731354,6.433617l-7.352692,1.148865l-10.799286,2.067947l-14.016113,18.152008l-6.663422,3.216812l-10.339752,-6.663391l-4.135895,-7.12294l0,-2.757271l1.608429,-2.067947l-0.919098,-5.974083l2.297729,-4.825218l9.420654,-5.054989l2.527496,-4.825211l-3.446594,-6.663403l-3.676361,-1.378628l1.148865,-3.44659l-7.582458,-10.79929l-5.28479,-0.91909l-5.054993,-0.68932l-3.216797,1.60841l-6.203857,-1.148861l-3.676361,-1.148869l-0.459534,-4.825211z" id="greenland"/>
  </g>
  <path opacity="0.75" id="svg_2" d="m409,47l-93,16" stroke-width="2" stroke="#000000" fill="none"/>
  <path id="svg_3" opacity="0.75" d="m408.5,47.999996l-60,50.000004" stroke-width="2" stroke="#000000" fill="none"/>
  <path transform="translate(-122, -242)" id="svg_5" opacity="0.75" d="m529.898438,289.949219l-163.898438,56.050781" stroke-width="2" stroke="#000000" fill="none"/>
  <path id="svg_6" opacity="0.75" d="m501,76l-16,-16" stroke-width="2" stroke="#000000" fill="none"/>
  <path id="svg_8" opacity="0.75" d="m536,94l-18,-10" stroke-width="2" stroke="#000000" fill="none"/>
  <path id="svg_9" opacity="0.75" d="m493.5,310l-85,78" stroke-width="2" stroke="#000000" fill="none"/>
  <path id="svg_11" opacity="0.75" d="m724,375l16,64" stroke-width="2" stroke="#000000" fill="none"/>
  <path id="svg_12" opacity="0.75" d="m701.5,462l38,-24" stroke-width="2" stroke="#000000" fill="none"/>
  <path id="svg_13" opacity="0.75" d="m724.5,276l-9,9" stroke-width="2" stroke="#000000" fill="none"/>
  <path id="svg_14" opacity="0.75" d="m645.5,197l2,17" stroke-width="2" stroke="#000000" fill="none"/>
  <path id="svg_15" opacity="0.75" d="m549.5,133l7,11" stroke-width="2" stroke="#000000" fill="none"/>
  <path id="svg_16" opacity="0.75" d="m547.5,99l37,-6" stroke-width="2" stroke="#000000" fill="none"/>
  <path id="svg_17" opacity="0.75" d="m588.5,103l-9,25" stroke-width="2" stroke="#000000" fill="none"/>
  <path id="svg_18" opacity="0.75" d="m1070.5,160l28.46875,28.78125" stroke-width="2" stroke="#000000" fill="none"/>
  <path id="svg_19" opacity="0.75" d="m1061.992188,195.03125l36.484375,-7.078125" stroke-width="2" stroke="#000000" fill="none"/>
  <path id="svg_22" opacity="0.75" d="m996.390625,320.539001l38.59375,57.890625" stroke-width="2" stroke="#000000" fill="none"/>
  <path d="m1050.39978,314.785126c-4.19519,0 -4.942871,0 -5.56665,0c-0.753784,0 -1.493042,0.120728 -2.067627,0.305084c-0.872925,0.28009 -1.381958,0.383698 -2.297607,0.452271c-0.747437,0.055969 -1.326904,0.373779 -2.018188,0.384705c-0.748657,0.011749 -1.436401,0.162659 -2.090698,0.358948c-0.685791,0.20578 -1.209717,0.594543 -1.842285,0.917328c-0.642944,0.327972 -1.418335,0.217987 -1.962891,0.647125c-0.581299,0.458344 -1.218994,0.741241 -1.810791,1.12204c-0.586304,0.377014 -1.195435,0.586121 -1.56604,1.217682c-0.345459,0.588165 -0.908081,1.058777 -1.382446,1.613098c-0.478149,0.558472 -1.059082,1.036102 -1.358398,1.729218c-0.297974,0.690094 -0.422241,1.527893 -0.889648,2.059814c-0.483154,0.549896 -0.703003,1.242004 -0.904541,1.96579c-0.193359,0.694672 -0.561279,1.262299 -0.760376,2.027252c-0.171143,0.658569 -0.369812,1.403931 -0.618713,2.139954c-0.224915,0.665253 -0.559448,1.291534 -1.02533,1.847321c-0.433044,0.516571 -0.921326,1.19577 -1.322815,1.687439c-0.524536,0.642334 -1.056763,1.20816 -1.47876,1.810608c-0.497375,0.709808 -0.566406,1.524292 -0.940918,2.188324c-0.364685,0.646637 -0.570251,1.391998 -1.146545,2.046783c-0.469055,0.532806 -0.881714,1.076416 -1.33374,1.713013c-0.430298,0.605988 -0.783386,1.262268 -1.255798,1.96228c-0.424561,0.62912 -1.137024,0.923126 -1.654541,1.476532c-0.519775,0.556061 -1.063232,0.958008 -1.612366,1.446594c-0.50647,0.450653 -0.996704,1.02887 -1.588745,1.513092c-0.55603,0.454712 -1.035828,1.060669 -1.635132,1.486206c-0.566895,0.402527 -1.087585,0.981842 -1.588928,1.505432c-0.532959,0.556824 -1.086182,0.887268 -1.674194,1.395844c-0.583069,0.504242 -1.067993,1.134003 -1.739563,1.514801c-0.613525,0.34787 -1.353638,0.571014 -1.816284,1.093567c-0.524353,0.592285 -1.137512,0.882294 -1.729858,1.24057c-0.624695,0.377808 -1.348572,0.638824 -1.99292,0.985718c-0.697266,0.375549 -1.329956,0.754456 -1.908691,1.097839c-0.638,0.37851 -1.329346,0.579376 -2.057312,0.729431c-0.711182,0.146484 -1.394287,0.3591 -2.08374,0.542572c-0.772278,0.205505 -1.499817,0.21875 -2.168091,0.21875c-0.745544,0 -1.527161,0 -2.165955,0c-0.776672,0 -1.498718,0.166443 -2.169983,0.348175c-0.735901,0.19931 -1.483826,0.032532 -2.19635,0.032532c-0.766418,0 -1.481262,0 -2.179749,0c-0.813049,0 -1.47168,-0.01712 -2.225098,0c-0.716431,0.016235 -1.413391,0.376709 -2.068848,0.380646c-0.844971,0.005127 -1.514282,0 -2.185486,0c-0.801453,0 -1.570251,0 -2.3125,0c-0.660522,0 -1.4552,-0.08905 -2.159851,0.007904c-0.725586,0.100006 -1.459106,0.42337 -2.058533,0.555237c-0.83252,0.183197 -1.526733,0.198242 -2.259399,0.198303c-0.739624,0 -1.458862,0.166138 -2.161804,0.3172c-0.644531,0.138397 -1.41333,0.071136 -2.203552,0.253784c-0.713257,0.164856 -1.468933,0.263672 -2.134583,0.609039c-0.600647,0.311584 -1.257996,0.469055 -1.924194,0.786774c-0.561218,0.267548 -1.295349,0.784058 -2.010071,1.013611c-0.695435,0.22345 -1.326782,0.473816 -1.91803,0.82074c-0.620789,0.364258 -1.308044,0.656281 -1.906616,0.949371c-0.753601,0.369019 -1.331543,0.661804 -2.051208,1.023102c-0.635864,0.319183 -1.242432,0.745544 -1.862061,1.19278c-0.565674,0.408234 -1.089539,0.928101 -1.745056,1.48465c-0.552612,0.469238 -1.07666,1.090546 -1.669434,1.446594c-0.682007,0.409637 -1.296814,0.692902 -1.906311,1.142059c-0.609192,0.448914 -1.126343,1.019257 -1.711853,1.513062c-0.597717,0.504028 -0.988708,1.180908 -1.426514,1.722687c-0.509766,0.630951 -0.951477,1.256622 -1.353149,1.865387c-0.433838,0.65741 -0.576294,1.512421 -0.785461,2.12973c-0.27002,0.796844 -0.548035,1.445679 -0.818481,2.222687c-0.268494,0.770721 -0.347961,1.519653 -0.347961,2.303345c0,0.849182 -0.025757,1.675903 -0.17395,2.352051c-0.186218,0.849915 -0.130676,1.591644 -0.325684,2.472443c-0.169373,0.764587 -0.542236,1.394806 -0.544067,2.148071c-0.002075,0.815765 -0.06134,1.699158 0.012451,2.473419c0.074402,0.779388 0.269836,1.364746 0.322876,2.396759c0.032593,0.633636 0.012268,1.601868 0.012512,2.318329c0.000305,0.827118 -0.018982,1.506409 0.077026,2.442688c0.07843,0.765076 0.272583,1.712708 0.373718,2.277252c0.148254,0.828125 0.139282,1.691803 0.303101,2.481293c0.178589,0.861816 0.517761,1.486938 0.672546,2.270325c0.150696,0.763031 0.210938,1.670715 0.334473,2.398865c0.130188,0.766876 0.320129,1.402954 0.653137,2.280518c0.290588,0.765289 0.501587,1.517792 0.775208,2.250092c0.290161,0.776764 0.568298,1.496307 0.882935,2.106384c0.363098,0.704315 0.528198,1.38559 0.91449,2.081024c0.36676,0.66037 0.567627,1.287781 1.038086,2.128845c0.383301,0.684937 0.714294,1.26593 1.219238,1.917572c0.512512,0.661499 1.010498,1.217896 1.405579,1.852722c0.432007,0.694458 0.892822,1.35788 1.271362,1.880005c0.498108,0.686859 0.955139,1.397614 1.260376,1.959717c0.424438,0.781921 0.931213,1.168121 1.430542,1.713562c0.559509,0.611176 1.138855,1.228149 1.535889,1.684631c0.592896,0.681519 0.971985,1.333588 1.508057,1.84433c0.552734,0.526672 0.787781,1.299561 1.338379,1.851837c0.589111,0.591034 1.015015,1.036682 1.502869,1.756775c0.398987,0.588989 0.970032,1.148651 1.514893,1.705109c0.419312,0.428223 1.243103,0.835754 1.832947,1.287476c0.622559,0.476868 1.087708,1.056732 1.746582,1.461365c0.57312,0.351898 1.317627,0.569244 2.012939,0.989746c0.634155,0.383514 1.150146,0.956665 1.781128,1.276245c0.559814,0.283661 1.384949,0.657654 2.076111,0.969757c0.688049,0.310669 1.328735,0.620972 2.073608,0.769562c0.611084,0.121887 1.352661,0.353516 1.972839,0.600891c0.773499,0.308533 1.455627,0.587311 2.24762,0.839539c0.599854,0.19101 1.205078,0.361908 1.992188,0.632416c0.694946,0.238861 1.451355,0.604126 1.989624,0.774048c0.822449,0.259796 1.456055,0.367096 2.28772,0.6091c0.619446,0.180237 1.327393,0.373322 1.948303,0.532928c0.868591,0.223297 1.451843,0.389557 2.045654,0.516235c0.83075,0.177185 1.35498,0.27066 1.939941,0.378632c0.632019,0.116669 1.296875,0.23526 1.97998,0.353485c0.686218,0.118744 1.361145,0.23465 2.01123,0.336334c1.650391,0.258209 2.076416,0.326874 3.062378,0.401245c0.486206,0.036621 1.328186,0.024872 1.988342,0.035706c0.660156,0.010925 1.639648,0.089111 2.283508,0.228485c0.775085,0.167755 1.435547,0.30838 2.236938,0.592316c0.61499,0.217896 1.192505,0.531525 1.98822,0.656128c0.788818,0.123566 1.473755,0.209167 2.124023,0.314362c0.797119,0.128937 1.53363,0.072083 2.328186,0.216736c0.633667,0.115326 1.354004,0.424988 2.037292,0.544128c0.828613,0.144409 1.669495,0.108612 2.222351,0.108612c0.780762,0 1.473999,-0.019165 2.318237,0.001709c0.648743,0.016052 1.356079,0.218506 2.180847,0.332703c0.628601,0.087006 1.38092,0.046265 2.144531,0.046265c0.805359,0 1.419128,0 2.189758,0c0.703064,0 1.480957,0 2.169312,0c0.787964,0 1.500488,0.080383 2.241455,-0.001709c0.752808,-0.083374 1.325928,-0.616638 2.03833,-0.759186c0.697876,-0.139557 1.30127,-0.367554 2.086548,-0.653198c0.612183,-0.222626 1.381836,-0.383118 1.843628,-0.528931c0.893188,-0.282135 1.630859,-0.530396 2.483276,-0.817169c0.454224,-0.152832 0.91687,-0.309509 1.83606,-0.623322c0.441772,-0.150757 1.603394,-0.545898 2.179443,-0.750702c0.768921,-0.273438 1.529541,-0.613495 2.033936,-0.881134c0.753296,-0.399597 1.511841,-0.688324 2.091064,-0.936951c0.767578,-0.329437 1.315674,-0.868561 1.900024,-1.124268c0.713623,-0.312164 1.432495,-0.657715 2.096313,-0.97052c0.69104,-0.325592 1.387817,-0.283508 2.091309,-0.599792c0.599243,-0.269348 1.307983,-0.796112 2.02478,-1.187317c0.561279,-0.306458 1.243774,-0.641388 1.854004,-0.891357c0.788574,-0.322906 1.399536,-0.463562 2.228027,-0.817261c0.559937,-0.239014 1.319824,-0.706085 1.875122,-1.095764c0.635254,-0.446106 1.14917,-0.785248 1.865967,-1.290283c0.61792,-0.435211 1.132813,-0.911865 1.875122,-1.336456c0.563599,-0.322388 1.218872,-0.684143 1.717529,-1.29425c0.502441,-0.615112 1.078003,-1.10144 1.69043,-1.484741c0.607056,-0.379761 1.303955,-0.745422 1.839233,-1.231812c0.584595,-0.531067 1.043823,-1.138 1.595337,-1.741516c0.482056,-0.527161 1.047974,-1.166718 1.561157,-1.570435c0.572388,-0.450531 1.218262,-0.961212 1.764526,-1.442719c0.597534,-0.526978 0.901855,-0.790955 1.457397,-1.327667c0.845093,-0.816345 1.231812,-1.345947 1.696899,-1.978485c0.532104,-0.723785 0.927368,-1.202271 1.434082,-1.959595c0.409912,-0.612091 0.809326,-1.233124 1.266846,-1.902954c0.366089,-0.535583 0.838623,-1.346283 1.252563,-2.034027c0.350952,-0.58252 0.76062,-1.367096 1.043823,-1.931702c0.411011,-0.819397 0.78064,-1.441803 1.212036,-2.09729c0.375366,-0.570618 0.879028,-1.413757 1.311157,-1.962158c0.483154,-0.613495 1.052856,-0.956146 1.574707,-1.714355c0.401733,-0.583527 0.714355,-1.307556 1.043579,-2.145813c0.238525,-0.607117 0.59314,-1.416992 0.942017,-2.085205c0.354736,-0.678375 0.622192,-1.265991 1.036865,-2.161255c0.328613,-0.708771 0.735352,-1.353424 1.101807,-2.157166c0.256714,-0.562836 0.470581,-1.480011 0.649414,-2.187897c0.201782,-0.799408 0.378296,-1.620972 0.46106,-2.304169c0.09668,-0.802368 0.339844,-1.598633 0.547852,-2.284058c0.242554,-0.799225 0.394775,-1.720764 0.505371,-2.376495c0.142822,-0.846741 0.621948,-1.448914 0.940796,-2.21344c0.30249,-0.724426 0.605591,-1.490143 0.771606,-2.266357c0.172485,-0.806519 0.422119,-1.506653 0.605225,-2.2034c0.203735,-0.77533 0.34436,-1.576752 0.582764,-2.347046c0.236206,-0.763824 0.394897,-1.533356 0.629517,-2.361206c0.177979,-0.628632 0.424805,-1.571014 0.568726,-2.296783c0.156616,-0.789612 0.091064,-1.597076 0.257935,-2.360229c0.165039,-0.756256 0.148071,-1.598877 0.148071,-2.360229c0,-0.837433 0.002075,-1.598877 0,-2.449036c-0.002075,-0.766449 -0.05188,-1.591675 -0.318848,-2.358704c-0.245239,-0.704163 -0.630249,-1.404236 -0.8573,-2.137726c-0.222534,-0.720245 -0.63623,-1.434265 -0.93335,-2.088501c-0.326782,-0.718933 -0.495972,-1.082703 -0.806152,-1.794617c-0.493042,-1.131104 -0.853394,-1.736603 -1.25061,-2.51297c-0.320923,-0.626953 -0.73291,-1.322723 -1.069458,-2.019897c-0.371338,-0.770264 -0.938721,-1.220001 -1.36731,-1.823456c-0.471069,-0.663757 -0.851074,-1.256836 -1.26001,-1.934875c-0.391113,-0.649414 -0.85791,-1.337555 -1.140381,-2.12204c-0.243896,-0.677002 -0.524658,-1.330719 -0.936279,-2.011658c-0.43103,-0.713348 -1.049561,-1.158325 -1.461548,-1.741486c-0.380249,-0.538116 -0.879395,-1.440704 -1.189575,-2.040436c-0.296265,-0.57309 -0.883179,-1.285461 -1.410034,-1.859894c-0.474731,-0.517548 -0.876221,-1.222961 -1.347046,-1.939301c-0.412598,-0.627686 -1.002075,-1.084167 -1.478394,-1.68515c-0.45752,-0.576935 -0.947998,-1.249969 -1.372559,-1.839386c-0.425171,-0.590576 -0.909546,-1.170624 -1.482178,-1.72934c-0.562988,-0.549194 -1.227539,-0.848511 -1.70813,-1.446564c-0.496826,-0.618622 -1.060059,-1.027161 -1.488403,-1.676727c-0.408447,-0.619263 -0.955444,-1.248322 -1.371704,-1.881683c-0.455566,-0.693329 -0.887573,-1.276489 -1.426514,-1.802643c-0.568237,-0.555176 -1.040405,-1.088318 -1.56543,-1.627197c-0.47583,-0.48819 -0.91748,-1.213257 -1.453735,-1.751617c-0.543091,-0.544922 -1.029785,-1.147614 -1.360718,-1.852753c-0.315308,-0.671997 -0.683105,-1.337616 -1.011108,-1.993683c-0.373169,-0.74649 -0.478638,-1.502075 -0.743286,-2.240479c-0.296509,-0.828369 -0.565552,-1.532501 -0.823975,-2.184113c-0.315796,-0.797729 -0.589844,-1.48703 -0.944702,-2.142975c-0.415161,-0.767273 -0.88269,-1.454865 -1.154053,-2.164276c-0.283203,-0.740265 -0.626953,-1.450439 -0.753906,-2.151825c-0.137939,-0.762909 -0.00354,-1.58844 -0.225342,-2.300476l-0.505249,-0.496613l-0.558105,-0.378937l-0.575073,-0.360596" id="svg_24" opacity="0.25" stroke-linecap="null" stroke-linejoin="null" stroke-dasharray="null" stroke-width="2" stroke="#000000" fill="#0000ff"/>
  <path id="svg_25" opacity="0.75" d="m1071.484375,404.492218l27.625,10.640625" stroke-width="2" stroke="#000000" fill="none"/>
  <path id="svg_26" opacity="0.75" d="m1107.34375,463.132782l-7.390625,-47.578125" stroke-width="2" stroke="#000000" fill="none"/>
  <path id="svg_27" opacity="0.75" d="m1078.65625,474.945404l-6.96875,-70.78125" stroke-width="2" stroke="#000000" fill="none"/>
  <g id="svg_30">
   <path stroke="#000000" fill="#6b0fbc" d="m655.8125,93.28125l8.9375,-8.28125l-6.25,-7.75l0.5,-4.75l-3.25,-3l3,-4l-5.25,-3l-0.25,-4.25l4.53125,-3.21875l-7.78125,-1.90625l-4.25,1.0625l-8.65625,-0.875l-20.84375,7.59375l-2.3125,4.25l-8.3125,6.875l-0.53125,2.84375l-9.53125,7.25l-9.375,3.15625l-4.40625,5.65625l1.9375,3.71875l-1.0625,3.375l4.9375,5.125l4.96875,-0.1875l6.34375,-4.0625l4.96875,5.125l1.75,6.1875l2.5,3.1875l2.625,0.34375l6.71875,-3.34375l2.65625,-8.5l6.5625,-4.40625l0.53125,-2.65625l-4.09375,-0.875l-3.34375,-4.59375l1.9375,-5.3125l5.5,-2.84375l4.40625,-4.40625l4.9375,-5.3125l2.65625,-0.53125l3,1.4375l-0.15625,5.125l-7.4375,8.65625l0.34375,4.0625l6.375,4.59375l5.3125,0l3.875,-1.25l4.59375,-0.53125l0.6875,0.21875z" id="scandinavia"/>
   <path stroke="#000000" fill="#6b0fbc" d="m587.812012,165.531006l-3.062012,-4.781006l1.25,-1.5l-0.75,-3.5l-4,-2l6.5,-5.75l1,-5.25l-13.75,-3.5l-3.437988,-6.625l-2.343018,1.625l-6.375,5.656006l-9.718994,3.905991l-8.468994,0c-2.121033,0 -0.375,2.469009 -0.375,2.469009l4.437988,1.062988l5.843018,4.25l1.562988,7.781006l-3.531006,8.313004l-12.187988,0.155991l-4.25,-2.655991l-8.468018,0.373993l-2.312988,4.75l1.25,4.25l-3.187012,12.719009l0.874023,7.437988l6.375977,0.187012l6,4.405991l1.593018,-2.280991l8.125,0.343994l5.125,-2.313004l2.5,-3l3.156982,-0.343002l2.312012,-3.187988l-2.843994,-3l7.968994,-7.969009l6.531006,-3.155991l-0.531006,-3.375l-0.687012,-2.469009l5.812012,-1.405991l6.906006,0.875l5.125,-2.469009l0.031006,-0.030991l0,0z" id="western-europe"/>
   <path stroke="#000000" fill="#6b0fbc" d="m668.46875,161.125l-3.71875,-2.375l-0.25,-3.5l-6.25,-8.25l-8.5,1.75l-5.25,0.5l-2.5,-1.5l-2,5.5l-5.75,2.5l-10,0l-4.75,-3.5l4.25,-5l-3.75,-4.5l-7.25,0.25l-8,6l-2.5,0.5l-4.5,3l-3,-4.75l-4.75,1.25l-2.1875,-1.28125l-0.0625,0.28125l-6.5,5.75l4,2l0.75,3.5l-1.25,1.5l3.0625,4.78125l3.34375,-3.5l4.75,0.34375l3.90625,6.53125l5.125,4.96875l7.78125,4.21875l5.8125,4.78125l1.96875,3.1875l-1.59375,3.71875l1.75,1.21875l3.375,-5.46875l-3.1875,-2.84375l3,-1.75l2.125,0.6875l3.71875,0.71875l-0.375,-1.75l-9.71875,-4.4375l-8.3125,-5.84375l-0.15625,-2.625l-6.375,-3.375l-2.28125,-4.25l6.1875,-2.8125l10.9375,9.375l9.1875,3.34375l4.4375,5.65625l0.34375,6.90625l3.71875,4.40625l6.1875,1.0625l1.78125,1.78125l-5.3125,1.21875l1.9375,4.0625l5.125,2.65625c0,0 1.230408,-2.825058 1.9375,-4.0625c0.707092,-1.237442 0,-2.46875 0,-2.46875l-2.65625,-5.125l0,-4.78125l3.71875,-0.34375l5.125,-3.1875l4.96875,1.40625l7.9375,-0.875l0.375,-1.9375l-3.375,-2.65625l0.34375,-7.0625l3.09375,-5.5z" id="southern-europe"/>
   <path stroke="#000000" fill="#6b0fbc" d="m642.78125,148.21875l0.96875,-9.46875l5.75,-2.5l-4.75,-7.25l2.75,-2.75l-1.75,-2.5l-0.75,-3l-4.75,-1.5l1,-4.25l-4.53125,-0.3125l0.031189,0.125l-7.78125,5.5l-4.25,-3.03125l-10.59375,4.78125l-6.53125,-3.34375l-6.5625,2.46875l-4.21875,-6.5625l0.6875,-2.8125l0.53125,-2.46875l-0.875,-2.84375l-4.25,1.96875l-1.59375,4.0625l2.65625,7.40625l-1.78125,2.46875l-10.0625,1.25l-3.875,4.40625l-6.6875,4.5625l3.4375,6.625l13.75,3.5l-0.9375,4.96875l2.187561,1.28125l4.75,-1.25l3,4.75l4.5,-3l2.5,-0.5l8,-6l7.25,-0.25l3.75,4.5l-4.25,5l4.75,3.5l10,0l5.75,-2.5l2,-5.5l0.78125,0.46875z" id="northern-europe"/>
   <path stroke="#000000" fill="#6b0fbc" d="m717,175.6875l17.75,12.8125l7.5,-3.25l6.5,6.5l5.25,0.5l0.5,-13.5l-12.75,-15.75l1.5,-8.75l-11.5,-9.5l1.25,-5.75l4.5,-0.75l0.25,-4l8.5,-4.5l13,6.75l7.5,-2.5l9.25,3l6.5,-3.25l-12,-11l3,-3.5l-2,-3.25l-9.25,2.5l-0.75,-3l5.5,-0.5l-1,-2.75l-9,-2.5l3.25,-7.5l-3.5,-4l-0.25,-6l-2.25,-3l-4.25,-6l-0.75,-4l16.5,-11.5l-5.75,-3.5l-0.375,-5.46875l-2,-0.40625l-15.25,-4.25l-0.875,3.125l7.375,1l-0.25,2.625l-4.875,0l-6.75,2.125l-4.75,-0.25l-2,-2l-7.625,1l-12.125,6l-3.25,-2.25l0.125,-2.625l-6,-0.75l-0.25,1.625l2.25,3.125l0.375,1.625l-9.875,2.25l-2,1.625l1.5,2l-3.375,2.25l-7.25,-2l0.125,1.375l4.625,2.625l-4.625,1.875l-7.5,-3.5l-3.875,-6.125l-4.75,-1.875l0.375,-2.125l9.875,0.875l4,2.25l8.125,-0.375l4.5,-1.625l-1.375,-3l-20.25,-6.5l-4.84375,1l-5.65625,-3.5625l-3.71875,-0.90625l-4.53125,3.21875l0.25,4.25l5.25,3l-3,4l3.25,3l-0.5,4.75l6.25,7.75l-8.9375,8.28125l6.5625,2.09375l-5.28125,2.46875l-15.03125,0.53125l0.34375,1.59375l4.78125,5.125l-3,3.71875l-3.1875,-3l-4.59375,0l-0.53125,6l0.84375,2.875l4.53125,0.3125l-1,4.25l4.75,1.5l0.75,3l1.75,2.5l-2.75,2.75l4.75,7.25l-5.75,2.5l-0.96875,9.46875l1.71875,1.03125l5.25,-0.5l8.5,-1.75l6.25,8.25l0.25,3.5l3.71875,2.375l2.5625,-4.59375l7.625,-4.40625l3.34375,2.65625l2.3125,1.40625l-2.3125,2.46875l4.0625,4.0625l8.65625,-2.28125l-0.15625,-2.65625l-4.59375,-0.375l-0.71875,-3l13.625,-4.9375l-1.25,6.71875l-1.40625,4.9375l16.625,9.90625l0.15625,4.65625z" id="ukraine"/>
   <path stroke="#000000" fill="#6b0fbc" d="m530.125,77.251404l-7.860107,6.876404l-17.087128,5.372192l-8.543579,-6.446632l-3.759186,2.793541l1.196106,-7.521065l4.442657,-2.36377l8.714447,-3.008423l4.100952,1.719101l5.638733,0l5.296997,-4.297752l5.297058,2.578651l2.563049,4.297752z" id="iceland"/>
   <g id="great-britain">
    <path stroke="#000000" fill="#6b0fbc" d="m548.66217,89.455322l-5.550659,5.830322l0.537109,2.211502l5.371643,1.407318l6.266907,9.2481l5.192566,13.269012l1.61145,-1.80941l4.476379,-0.20105l1.432434,2.814644l-8.057434,5.22718l3.043945,4.221954l-31.334473,4.825104l12.891907,-6.634506l-2.506775,-2.412552l-7.878418,-1.80941l4.118286,-3.015678l0,-4.02092l7.341187,-4.422997l-2.327698,-10.856468l-7.16217,-0.201042l-1.61145,-10.655418l3.043884,-6.835556l5.55072,-2.010452l-1.432434,2.814636l2.506714,2.412544l4.476379,0.603142z" id="path3930"/>
    <path stroke="#000000" fill="#6b0fbc" d="m526.459473,122.225761l-8.952698,2.613594l-6.445953,4.020905l-2.685822,-5.42823l4.297302,-8.041824l-3.043915,-3.216728l0,-2.814636l7.878387,-1.206276l2.685791,-5.026138l9.847961,0.402092l1.790527,3.41777l-4.476318,6.232414l-0.895264,9.047058z" id="path3932"/>
   </g>
  </g>
  <g id="svg_31">
   <path stroke="#000000" fill="#30c40f" d="m995.96875,266.65625l-10.625,-8.8125l-14.125,4.59375l0.34375,4.59375l-7.0625,-0.375l-6.71875,-10.9375l-4.25,-2.5l-1.40625,-3.53125l4.59375,-6.71875l-7.4375,-6.71875l-9.875,7.78125l0.34375,8.84375l-3.90625,6.375l2.125,5.3125l-5.4375,2.59375l13.40625,17.53125l-1.9375,3.03125l4.59375,4.75l4.21875,-5.46875l3.90625,0.1875l6.375,17.5l-0.90625,20.84375l9.1875,7.4375c0,0 6.010742,17.324127 6.1875,18.03125c0.176758,0.707092 6.71875,5.28125 6.71875,5.28125l3.71875,1.0625l0.625,-2.34375l-2.625,-9.625l-3.625,-7.875l-10.5,-7.75l-0.625,-2.875l-4.5,-7l0.125,-6.25l1.75,-1.125l0.125,-5.375l-1.375,-0.75l0.5,-3.875l2.75,-0.625l15.5,14.875l1,-1l3.5,0l1.625,2.75l-2,1.25l0,2.25l1.25,2.125l4.875,-3.625l1.25,-3.625l5.375,-2.25l4.5,-6l-0.625,-7.75l-6.75,-11.75l-10.375,-10.125l-1,-5.5l5.25,-6l1.96875,-0.84375z" id="siam"/>
   <path stroke="#000000" fill="#30c40f" d="m1018.218811,182.125l-11.718811,-10.625l-3.5,-2l-0.75,3.25l-4.25,0.25l-1.5,2.25l-4.25,-3.75l-0.25,5.25l2.25,2.75l-15,5.5l-1.5,7.5l-7.25,-2.25l-2.5,-5.25l-3.75,1.75l2.5,4l-3.5,3l-6.5,-2.75l2.25,-3.5l-3.5,-3.5l-6.25,4.5l-7.25,-5l-0.5,-5l-7.5,1l-23.25,-19l-9.5,0l-8.75,-11l-3.75,-1l-9.5,-7.5l-6.25,4l3.25,5.25l-4.5,2.75l-1.75,-2.25l-4.25,3.25l-0.25,3.25l-8,3.25l6.25,6.75l0,4.25l-12.5,8.75l-3.75,0l-7.75,3.5l7.75,7l-0.3125,3.53125l13.0625,8.46875l8.5,1l3.5,5l-2,3l1.25,2.5l-3,4.25l9.5,7.75l9.5,0.5l6.25,5.5l10,-0.5l7,5.75l8.75,-1.5l5.25,2.75l3.75,-0.75l4.75,-6l8.25,-0.25l6.5,5.5l1.28125,-1l7.4375,6.71875l-4.59375,6.71875l1.40625,3.53125l4.25,2.5l6.71875,10.9375l7.0625,0.375l-0.34375,-4.59375l14.125,-4.59375l10.625,8.8125l3.78125,-1.65625l3.25,1.625l1.625,3.625l1.5,-0.375l5.375,-5l5.375,-1.25l13.5,-3.875l7.625,-7.25l7,-22.25l-1.375,-2.375l-4.625,-0.75l-0.125,-1.625l3,-0.75l-1.125,-2.875l-7,-4.875l-3.625,-7.75l-4.25,-2.5l0,-5.75l7.875,-4.375l0.75,-1.625l-6.25,-2.25l-2.125,-0.125l-3.125,3.25l-10.25,-6.875l-0.125,-2l5.593811,-4.875z" id="china"/>
   <path stroke="#000000" fill="#30c40f" d="m798.25,202.59375l-3.75,-6.59375l-14,-5.25l-8.75,1.75l-8.5,5.75l-9.21875,-6.4375l-0.031189,0.4375l-5.25,-0.5l-6.5,-6.5l-7.5,3.25l-17.75,-12.8125l0,0.46875l-9.375,3.375l-11.65625,-4.625l-11.125,-0.875l-5.125,3.53125l-8.15625,0.90625l-3.6875,3.53125l-3.5625,-0.375l-4.0625,2.65625l3.03125,3.71875l-0.71875,3.90625l4.59375,4.75l3.53125,1.96875l4.59375,0l1.0625,-1.59375l4.78125,0l3,3.15625l4.40625,-0.15625l4.4375,-2.46875l6.53125,0.15625l-3.875,22.46875l-2.59375,4.3125l5.6875,7.5625l0.625,7.21875l16.4375,20.5l1.0625,8.3125l15.71875,19.625l0.71875,9l2.46875,6.375l3.875,3l24.9375,-9.71875l11.3125,-10.4375l5.65625,-0.875l18.375,-19.8125l0,-3l-14.84375,-10.59375l-1.0625,-2.5l1.78125,-1.75l-1.781311,-2.65625l-10.0625,9.71875l-9.03125,-0.1875l-0.53125,-1.40625l2.125,-2.65625l-0.71875,-3.53125l-1.75,0l-2.46875,3.375l-3.53125,-1.59375l-1.25,-6.375l-7.4375,-11.84375l5.125,-4.25l4.78125,2.5l4.59375,8.46875l10.625,6.375l3.53125,0l4.0625,-2.125l3.53125,0l7.78125,8.125l14.53125,0.5l-2.65625,-3.34375l4.75,-5l-0.5,-3.75l-7.5,-7.75l1.25,-6.75l-8,-13.75l3,-6.90625z" id="middle-east"/>
   <path stroke="#000000" fill="#30c40f" d="m867.09375,152.96875l-17.09375,-13.71875l-4.75,-10.75l-9.25,-2.5l-8.25,-7.75l-3.75,5l-10,-3l-6.25,-6l-6,1l-10.5,5l-11.25,0.5l-3.1875,7.78125l5.6875,5.21875l-6.5,3.25l-9.25,-3l-7.5,2.5l-13,-6.75l-8.5,4.5l-0.25,4l-4.5,0.75l-1.25,5.75l11.5,9.5l-1.5,8.75l12.75,15.75l-0.46875,13.0625l9.21875,6.4375l8.5,-5.75l8.75,-1.75l14,5.25l3.75,6.59375l0.25,-0.59375l4.25,0.75l6,-2.5l1.25,-4.75l5.25,-3l7.25,4l6.75,-2.75l3,-4.5l4.5,3.25l1.25,2.75l8.75,-1.25l0.4375,0.28125l0.3125,-3.53125l-7.75,-7l7.75,-3.5l3.75,0l12.5,-8.75l0,-4.25l-6.25,-6.75l8,-3.25l0.25,-3.25l1.34375,-1.03125z" id="afghanistan"/>
   <path stroke="#000000" fill="#30c40f" d="m873.9375,144.40625l-3.4375,-1.65625l-2.25,-4.25l-9,-4.25l13,-8l-15.5,-14.75l7,-3.25l6.25,0.75l-3,-5.5l-5.75,-0.75l1.75,-4l-13.25,-4l-2.5,0.75l-2.25,-3.25l1.5,-4.25l-5.75,-1l-1.75,-8.25l-13.75,-6.5l-13.25,-13.5l-6,1.75l-3.25,-3.5l2.25,-2.5l-7.125,-7.9375l-5.375,3.8125l-7.125,-0.75l0.75,4l6.625,4.875l3,4.5l-1.625,5l-5.75,3.125l-2.875,-1.5l4.625,-6.25l-13.75,-17.75l-6.625,0.25l-4.5,5l2.5,4.625l6.75,2.875l1.875,2.75l-3.25,2.625l-4.125,-3l-9.375,-1.96875l0.375,5.46875l5.75,3.5l-16.5,11.5l0.75,4l4.25,6l2.25,3l0.25,6l3.5,4l-3.25,7.5l9,2.5l1,2.75l-5.5,0.5l0.75,3l9.25,-2.5l2,3.25l-3,3.5l6.3125,5.78125l3.1875,-7.78125l11.25,-0.5l10.5,-5l6,-1l6.25,6l10,3l3.75,-5l8.25,7.75l9.25,2.5l4.75,10.75l17.09375,13.71875l2.90625,-2.21875l1.75,2.25l4.5,-2.75l-3.25,-5.25l0.9375,-0.59375z" id="ural"/>
   <path stroke="#000000" fill="#30c40f" d="m1054.28125,172.40625l-2.03125,-1.90625l2.25,-4l-3.5,-4.75l6,-7.5l-1.75,-3.25l0.5,-3.25l-3.25,-3.25l-9.25,4.75l-9,-5.75l-15.5,-5.75l-3,-5l-7.25,-7l-10.5,-4l-12.5,2.75l4.5,5.25l1,8l-8.25,2.75l-10.5,-3l-5.5,4.5l-9.5,-1.75l-11.75,-4l-12.25,0.5l-7.75,-5.5l-9.75,-2.5l-3.25,5l4,3l-1.25,1.75l-10,-1.25l-8.5,-3.5l-5.25,1.25l-5,3l-2.5625,0.84375l0.3125,1.15625l-2.84375,2.6875l7.34375,5.8125l3.75,1l8.75,11l9.5,0l23.25,19l7.5,-1l0.5,5l7.25,5l6.25,-4.5l3.5,3.5l-2.25,3.5l6.5,2.75l3.5,-3l-2.5,-4l3.75,-1.75l2.5,5.25l7.25,2.25l1.5,-7.5l15,-5.5l-2.25,-2.75l0.25,-5.25l4.25,3.75l1.5,-2.25l4.25,-0.25l0.75,-3.25l3.5,2l11.718811,10.625l5.031189,-4.375l3.5,2.375l0,4.25l2,2.25l6.875,-4l7.25,4.5l-1.5,4.125l5.25,1l5.875,4.5l4,10.875l9.5,-4l-3.5,-8.25l-14.25,-9.25l0.25,-2.875l4.25,-1.75l2,-2.5l-2,-2.625l1.125,-3.375l0.40625,-0.59375z" id="mongolia"/>
   <path stroke="#000000" fill="#30c40f" d="m1035.9375,144.5625l1.5625,-3.5625l-9.25,-8l3.75,-3.25l4,-3.25l-3.5,-4l-2.5,2.5l-6.5,-0.25l-5.5,-3.75l4.25,-6.75l-8.5,-1l-14.5,-0.5l-15.5,-4.25l-11,0.5l-12.5,-12.25l-5,0.25l-2.5,-4l-6.5,0.25l-2.5,5.75l-13.25,-0.5l-0.25,-7.25l-16.5,-12.25l-4.0625,0.125l0.8125,0.625l-2.75,3l5.5,4.5l-3.5,7l4.5,0.25l4,6l-6.5,-1l-6,7.25l-3,-2.75l-4.75,1.25l2.75,4.75l-0.5,5.25l3,2.25l-2,3.75l-7.25,3.5l-1.25,4.25l-7,0.25l-2.75,-2.5l-4.5,4.75l4.75,4.75l0.6875,2.59375l2.5625,-0.84375l5,-3l5.25,-1.25l8.5,3.5l10,1.25l1.25,-1.75l-4,-3l3.25,-5l9.75,2.5l7.75,5.5l12.25,-0.5l11.75,4l9.5,1.75l5.5,-4.5l10.5,3l8.25,-2.75l-1,-8l-4.5,-5.25l12.5,-2.75l10.5,4l7.25,7l3,5l15.5,5.75l1.6875,1.0625z" id="irkutsk"/>
   <path stroke="#000000" fill="#30c40f" d="m1056.25,57.3438l-4,5.4062l7.5,2l-1.25,3l-11,-1l-0.5,5.5l4,0.25l-1.5,2.5l-13.5,-0.75l-5.5,3.25l7.25,7.25l-1.25,1l-13,-2l-4,4.75l5.25,5.5l-3.5,3.5l-13,2l0.75,6.75l3,0.75l1.280029,6.219002l0.469971,0.030998l8.5,1l-4.25,6.75l5.5,3.75l6.5,0.25l2.5,-2.5l3.5,4l-4,3.25l-3.75,3.25l9.25,8l-1.560059,3.561996l7.310059,4.688004l9.25,-4.75l3.25,3.25l-0.5,3.25l1.75,3.25l-6,7.5l3.5,4.75l-2.25,4l2.030029,1.906006l2.839966,-3.906006l2.26001,0.125l3.119995,1.125l3.880005,-2.125l1.619995,-3.5l3,-6.25l-0.25,-18.5l-2.630005,-3.25l-12.619995,-14.875l-4.75,-1.5l-5,1.75l-8.369995,-2.875l-4.380005,-2.5l2.619995,-1.75l2.26001,-11l6.619995,-5.500099l6.5,0.875l7.619995,0l3.5,-1.25l4.880005,0.125l7.5,2.875099l4.619995,-2.375099l-1.23999,-2.375l1,-7.25l3.73999,-0.875l6.380005,2l4.380005,3l2.369995,-2.75l-1.630005,-2.875l4.380005,-2l5,7.125l-1.880005,6.125l-3.119995,6.500099l0.25,4.375l11.630005,12.375l10,11.375l2,0.125l3,-2.625l-1.130005,-4l-1.5,-6.875l2.75,-0.75l-4.25,-9.5l-2.369995,-2.125l-6.76001,-3.5l-3.619995,-5.250099l4,-2.5l3.619995,-0.75l6.380005,-3.625l3.25,2.875l2.630005,-0.125l8.73999,-8.375l5.76001,0.875l3.119995,-0.625l-0.25,-2.125l-19.25,-7l1,-2.375l4.119995,1.25l4.380005,-0.25l-3.25,-1.75l-1.25,-2.875l4.5,0.25l6.5,2.75l2.619995,-1.25l7.130005,4.125l5.5,0.375l2.130005,-2.625l-7.630005,-5.875l-5.630005,-1.25l-4.369995,1.75l-8.630005,-4.25l-12.5,-1.874901l-16.369995,-4.625l-17.630005,-2.75l-8.73999,0.375l4.119995,3.125l-2.380005,1.5l-6,-3.125c0,0 -11.01001,-0.158901 -17.869995,-0.2813l0,0.000099z" id="kamchatka"/>
   <path stroke="#000000" fill="#30c40f" d="m888,42.125l-2.25,0.5625l10.5,8.0625l-2.75,4.5l-4.5,2l3.25,4.5l9.75,12.25l5.25,3.25l2.4375,1.875l4.0625,-0.125l16.5,12.25l0.25,7.25l13.25,0.5l2.5,-5.75l6.5,-0.25l2.5,4l5,-0.25l12.5,12.25l11,-0.5l15.5,4.25l14.031189,0.46875l-1.281189,-6.21875l-3,-0.75l-0.75,-6.75l13,-2l3.5,-3.5l-5.25,-5.5l4,-4.75l13,2l1.25,-1l-7.25,-7.25l5.5,-3.25l13.5,0.75l1.5,-2.5l-4,-0.25l0.5,-5.5l11,1l1.25,-3l-7.5,-2l4,-5.40625c-2.350708,-0.04195 -5.997437,-0.061852 -6.125,-0.09375c-0.5,-0.125 -9.75,-4.125 -9.75,-4.125l-29.875,-0.875l-7.375,-3.625l-6.125,0.125l-2.875,-2.125l-17.375,-0.875l-1.625,1.75l2.5,2l-6,3.25l-7.25,-2l-4.125,0l-4.25,2.875l-2.625,-0.25l-15.125,-9.75l-14.25,0l-7,1.625l-11.25,-2.375l-6.875,1.625l-10.875,-2.375z" id="yakutsk"/>
   <path stroke="#000000" fill="#30c40f" d="m848.25,28.875l-6.625,5.625l-7.75,-0.75l-19.875,2.75l0.375,2l2.5,1.875l-2.5,1.875l-10,-0.25l-6.5,4.5625l7.125,7.9375l-2.25,2.5l3.25,3.5l6,-1.75l13.25,13.5l13.75,6.5l1.75,8.25l5.75,1l-1.5,4.25l2.25,3.25l2.5,-0.75l13.25,4l-1.75,4l5.75,0.75l3,5.5l-6.25,-0.75l-7,3.25l15.5,14.75l-13,8l9,4.25l2.25,4.25l3.4375,1.65625l5.3125,-3.40625l2.15625,1.6875l2.84375,-2.6875l-1,-3.75l-4.75,-4.75l4.5,-4.75l2.75,2.5l7,-0.25l1.25,-4.25l7.25,-3.5l2,-3.75l-3,-2.25l0.5,-5.25l-2.75,-4.75l4.75,-1.25l3,2.75l6,-7.25l6.5,1l-4,-6l-4.5,-0.25l3.5,-7l-5.5,-4.5l2.75,-3l-3.25,-2.5l-5.25,-3.25l-9.75,-12.25l-3.25,-4.5l4.5,-2l2.75,-4.5l-10.5,-8.0625l-9.5,2.3125l-1.875,-2.25l10.5,-6.125l-4.375,-4l-21,0l-4.5,-3.625l-6.75,-0.125z" id="siberia"/>
   <g id="japan">
    <path stroke="#000000" fill="#30c40f" d="m1089,158.875l7.75,5.625l9.5,3l0.130005,1.875l-3.880005,1.125l0,2.5l-7.25,-2.25l-2,0l0,5l-4.5,-5.375l3.5,-4.25l-3.630005,-5.875l0.380005,-1.375z" id="path3039"/>
    <path stroke="#000000" fill="#30c40f" d="m1094.619995,180.125l4.880005,9.625l-2.5,5.25l-5.25,4l-6.75,4.25l-2.119995,-1.375l-3.26001,0l-3.619995,4.5l-3.380005,1.125l5.380005,1.625l5.380005,-2l5.869995,-0.25l3.75,5.25l1.5,-6.25l10,-0.875l3.380005,-4.875l-0.380005,-3.25l-3.25,-4.125l0.369995,-4.25l0.880005,-0.75l-0.75,-3l-4.369995,-4.75l-3.380005,-1.875l-2.380005,0.25l0,1.75z" id="path3041"/>
    <path stroke="#000000" fill="#30c40f" d="m1077.119995,222.125l-1.23999,-4l-2.76001,-4l-1.619995,-0.25l1.619995,-3.75l4,2.375l1.880005,3.5l0.380005,3.25l-1.26001,2.5l-1,0.375z" id="path3043"/>
    <path stroke="#000000" fill="#30c40f" d="m1081.25,212.125l2.25,3.375l2.75,-2.375l0.25,-3.25l-2.880005,-0.125l-2.369995,2.375z" id="path3045"/>
   </g>
   <path stroke="#000000" fill="#30c40f" d="m948,237.25l-6.5,-5.5l-8.25,0.25l-4.75,6l-3.75,0.75l-5.25,-2.75l-8.75,1.5l-7,-5.75l-10,0.5l-6.25,-5.5l-9.5,-0.5l-9.5,-7.75l3,-4.25l-1.25,-2.5l2,-3l-3.5,-5l-8.5,-1l-13.5,-8.75l-8.75,1.25l-1.25,-2.75l-4.5,-3.25l-3,4.5l-6.75,2.75l-7.25,-4l-5.25,3l-1.25,4.75l-6,2.5l-4.25,-0.75l-3.25,7.5l8,13.75l-1.25,6.75l7.5,7.75l0.5,3.75l-4.75,5l2.65625,3.34375l10.75,0.375l2.28125,-2.46875l4.25,0.34375l11.3125,11.6875l5.5,-0.1875l0,2.46875l-3.71875,1.25l3,4.25l6.1875,1.59375l2.8125,-2.65625l-1.03125,-3.1875l3.53125,0.34375l2.125,6.03125l-1.59375,1.03125l-0.1875,4.96875l19.28125,47.90625l6.34375,2.46875l7.0625,-9.90625l0.375,-9l1.59375,-3.90625l-1.78125,-5.8125l-0.6875,-2.65625l18.71875,-18.21875l7.0625,-4.59375l1.4375,-7.0625l16.0625,-3.375l3.5625,5.125l0.375,0.5l5.4375,-2.59375l-2.125,-5.3125l3.90625,-6.375l-0.34375,-8.84375l8.59375,-6.78125z" id="path3055"/>
  </g>
  <path id="svg_32" opacity="0.75" d="m1121.078125,108.054688l105.34375,1.640617" stroke-width="2" stroke="#000000" fill="none"/>
  <path id="svg_33" opacity="0.75" d="m-0.664064,92.011719l27.66015,0.058594" stroke-width="2" stroke="#000000" fill="none"/>
  <path id="svg_34" opacity="0.75" d="m668.46875,176.3125l2,3.5" stroke-width="2" stroke="#000000" fill="none"/>
 </g>
</svg>